<svg t="1610093083946" class="icon" viewBox="0 0 1024 1024" version="1.1" xmlns="http://www.w3.org/2000/svg" p-id="9062"
     width="200" height="200">
    <path d="M512 1024 c 282.784 0 512 -229.216 512 -512 s -229.216 -512 -512 -512 s -512 229.216 -512 512 s 229.216 512 512 512 z M 512 96 c 229.76 0 416 186.24 416 416 s -186.24 416 -416 416 s -416 -186.24 -416 -416 s 186.24 -416 416 -416 z M 256 320 c 0 -35.36 28.64 -64 64 -64 s 64 28.64 64 64 c 0 35.36 -28.64 64 -64 64 c -35.36 0 -64 -28.64 -64 -64 z M 640 320 c 0 -35.36 28.64 -64 64 -64 s 64 28.64 64 64 c 0 35.36 -28.64 64 -64 64 c -35.36 0 -64 -28.64 -64 -64 z M 704.096 627.264 l 82.336 49.408 c -55.968 93.056 -157.92 155.36 -274.432 155.36 s -218.464 -62.272 -274.432 -155.36 l 82.336 -49.408 c 39.168 65.152 110.528 108.736 192.096 108.736 s 152.928 -43.584 192.096 -108.736 z"
          p-id="9063"></path>
</svg>