<svg aria-hidden="true"
     focusable="false" data-prefix="far" data-icon="sad-cry" class="svg-inline--fa fa-sad-cry fa-w-16" role="img"
     xmlns="http://www.w3.org/2000/svg" viewBox="0 0 496 512">
    <path fill="currentColor"
          d="M248 8
          C111 8 0 119 0 256
          s111 248 248 248
          s248-111 248-248
          S385 8 248 8z
          m144 386.4
          V280
          c0-13.2-10.8-24-24-24
          s-24 10.8-24 24
          v151.4
          C315.5 447 282.8 456 248 456
          s-67.5-9-96-24.6
          V280
          c0-13.2-10.8-24-24-24
          s-24 10.8-24 24
          v114.4
          c-34.6-36 -56-84.7 -56-138.4
          c0-110.3 89.7-200 200-200
          s200 89.7 200 200
          c0 53.7-21.4 102.5-56 138.4z
          M205.8 234.5
          c4.4-2.4 6.9-7.4 6.1-12.4
          c-4-25.2-34.2-42.1-59.8-42.1
          s-55.9 16.9-59.8 42.1
          c-.8 5 1.7 10 6.1 12.4
          c4.4 2.4 9.9 1.8 13.7-1.6
          l9.5-8.5
          c14.8-13.2 46.2-13.2 61 0
          l9.5 8.5
          c2.5 2.3 7.9 4.8 13.7 1.6z
          M344 180
          c-25.7 0 -55.9 16.9 -59.8 42.1
          c-.8 5 1.7 10 6.1 12.4
          c4.5 2.4 9.9 1.8 13.7-1.6
          l9.5-8.5
          c14.8-13.2 46.2-13.2 61 0
          l9.5 8.5
          c2.5 2.2 8 4.7 13.7 1.6
          c4.4-2.4 6.9-7.4 6.1-12.4
          c-3.9-25.2-34.1-42.1-59.8-42.1z
          m-96 92
          c-30.9 0-56 28.7-56 64
          s25.1 64 56 64
          s56-28.7 56-64
          s-25.1-64-56-64z"></path>
</svg>