<?xml version="1.0" standalone="no"?><!DOCTYPE svg PUBLIC "-//W3C//DTD SVG 1.1//EN" "http://www.w3.org/Graphics/SVG/1.1/DTD/svg11.dtd"><svg t="1609679269013" class="icon" viewBox="0 0 1024 1024" version="1.1" xmlns="http://www.w3.org/2000/svg" p-id="5897" xmlns:xlink="http://www.w3.org/1999/xlink" width="200" height="200"><defs><style type="text/css"></style></defs><path d="M687.248322 736.314656c0 15.982519-15.982519 47.947557-31.965038 47.947557s-63.930076-47.947557-143.842672-47.947557-127.860153 47.947557-143.842672 47.947557-31.965038-31.965038-31.965038-47.947557c0-29.983206 79.43312-79.912596 175.80771-79.912596 95.895115 0 175.80771 47.947557 175.80771 79.912596z m-175.80771-735.19588c-282.443078 0-511.440612 228.965569-511.440612 511.440612s228.965569 511.440612 511.440612 511.440612 511.440612-228.965569 511.440612-511.440612-228.965569-511.440612-511.440612-511.440612z m0 958.951148c-247.153676 0-447.510535-200.324895-447.510536-447.510536s200.35686-447.510535 447.510536-447.510535c247.185641 0 447.510535 200.35686 447.510535 447.510535s-200.324895 447.510535-447.510535 447.510536z m-143.842672-495.490058a79.912596 79.912596 0 1 1-159.825191 0 79.912596 79.912596 0 0 1 159.825191 0z m447.510535 0a79.912596 79.912596 0 1 1-159.825191 0 79.912596 79.912596 0 0 1 159.825191 0z" p-id="5898"></path></svg>