<svg id="f782a19b-ecf4-439b-b61e-e82ceff18d2d" data-name="图层 1" xmlns="http://www.w3.org/2000/svg"
     viewBox="0 0 199.78 199.78">
    <path d="M134.23,143.81
    c0,3.12
    -3.12,9.37
    -6.24,9.37
    s-12.49-9.37
    -28.1-9.37
    s-25,9.37
    -28.09,9.37
    s-6.25-6.25
    -6.25-9.37
    c0-5.85,15.52-15.61,34.34-15.61
    s34.34,9.37,34.34,15.61Z
    M99.89 .22a99.89,99.89,0,1,0,99.89,99.89
    A99.89,99.89,0,0,0,99.89 .22Z
    m0,187.29
    a87.41,87.41,0,1,1,87.41-87.4
    A87.39,87.39,0,0,1,99.89,187.51Z
    M71.8,90.74
    a15.61,15.61,0,0,1-31.22,0
    h0
    a15.61,15.61,0,0,1,31.22,0Z
    m87.4,0
    a15.61,15.61,0,1,1-31.21,0
    h0
    a15.61,15.61,0,1,1,31.21,0Z"
          transform="translate(0 -0.22)"/>
</svg>