<svg t="1610093083946" class="icon" viewBox="0 0 1024 1024" version="1.1" xmlns="http://www.w3.org/2000/svg" p-id="9062"
     width="200" height="200">
    <path d="M512 1024c282.784 0 512-229.216 512-512s-229.216-512-512-512-512 229.216-512 512 229.216 512 512 512zM512 96c229.76 0 416 186.24 416 416s-186.24 416-416 416-416-186.24-416-416 186.24-416 416-416zM256 320c0-35.36 28.64-64 64-64s64 28.64 64 64c0 35.36-28.64 64-64 64-35.36 0-64-28.64-64-64zM640 320c0-35.36 28.64-64 64-64s64 28.64 64 64c0 35.36-28.64 64-64 64-35.36 0-64-28.64-64-64zM704.096 627.264l82.336 49.408c-55.968 93.056-157.92 155.36-274.432 155.36s-218.464-62.272-274.432-155.36l82.336-49.408c39.168 65.152 110.528 108.736 192.096 108.736s152.928-43.584 192.096-108.736z"
          p-id="9063"></path>
</svg>