<?xml version="1.0" standalone="no"?><!DOCTYPE svg PUBLIC "-//W3C//DTD SVG 1.1//EN" "http://www.w3.org/Graphics/SVG/1.1/DTD/svg11.dtd"><svg t="1609518320313" class="icon" viewBox="0 0 1024 1024" version="1.1" xmlns="http://www.w3.org/2000/svg" p-id="2016" xmlns:xlink="http://www.w3.org/1999/xlink" width="200" height="200"><defs><style type="text/css"></style></defs><path d="M512 0C229.674667 0 0 229.674667 0 512c0 282.282667 229.674667 512 512 512 282.282667 0 512-229.717333 512-512C1024 229.696 794.282667 0 512 0zM512 981.312C253.226667 981.312 42.688 770.773333 42.688 512 42.688 253.205333 253.226667 42.666667 512 42.666667s469.312 210.538667 469.312 469.333333C981.312 770.773333 770.773333 981.312 512 981.312z" p-id="2017"></path><path d="M855.466667 588.8 168.512 588.8c-11.776 0-21.333333 9.536-21.333333 21.376 0 11.797333 9.557333 21.333333 21.333333 21.333333l348.437333 0c10.368 69.290667 70.122667 122.666667 142.272 122.666667 72.128 0 131.882667-53.397333 142.250667-122.666667l54.037333 0c11.754667 0 21.333333-9.578667 21.333333-21.333333C876.842667 598.336 867.242667 588.8 855.466667 588.8zM659.2 711.466667c-48.512 0-89.130667-34.346667-98.986667-79.957333l197.952 0C748.330667 677.098667 707.754667 711.466667 659.2 711.466667z" p-id="2018"></path><path d="M349.696 428.949333c4.16 4.16 9.621333 6.250667 15.104 6.250667 5.44 0 10.901333-2.069333 15.082667-6.250667 8.341333-8.341333 8.341333-21.845333 0-30.186667l-73.578667-73.578667c-8.362667-8.341333-21.824-8.341333-30.186667 0-8.362667 8.362667-8.362667 21.845333 0 30.186667L349.696 428.949333z" p-id="2019"></path><path d="M659.2 435.2c5.418667 0 10.901333-2.069333 15.082667-6.250667l73.578667-73.578667c8.384-8.341333 8.384-21.824 0-30.186667-8.384-8.341333-21.802667-8.341333-30.165333 0l-73.578667 73.578667c-8.341333 8.341333-8.341333 21.845333 0 30.186667C648.298667 433.109333 653.76 435.2 659.2 435.2z" p-id="2020"></path></svg>