<?xml version="1.0" standalone="no"?><!DOCTYPE svg PUBLIC "-//W3C//DTD SVG 1.1//EN" "http://www.w3.org/Graphics/SVG/1.1/DTD/svg11.dtd"><svg t="1609721856484" class="icon" viewBox="0 0 1024 1024" version="1.1" xmlns="http://www.w3.org/2000/svg" p-id="8719" xmlns:xlink="http://www.w3.org/1999/xlink" width="200" height="200"><defs><style type="text/css"></style></defs><path d="M0 0h1024v1024H0z" fill="#FFFFFF" p-id="8720"></path><path d="M466.688 493.824m-62.976 0a62.976 62.976 0 1 0 125.952 0 62.976 62.976 0 1 0-125.952 0Z" fill="#ABE3FF" p-id="8721"></path><path d="M592.384 576.384m-27.904 0a27.904 27.904 0 1 0 55.808 0 27.904 27.904 0 1 0-55.808 0Z" fill="#ABE3FF" p-id="8722"></path><path d="M772.48 947.2a34.56 34.56 0 0 1-16.128-3.968L512 815.104l-244.352 128A34.56 34.56 0 0 1 217.6 907.008l46.464-272.128L66.304 442.112a34.688 34.688 0 0 1 19.2-59.008L358.4 343.424l122.496-247.68a34.816 34.816 0 0 1 62.208 0L665.6 343.424l273.28 39.68a34.688 34.688 0 0 1 19.2 59.008L759.936 634.88 806.4 907.008A34.56 34.56 0 0 1 772.48 947.2zM512 741.376a34.56 34.56 0 0 1 16.128 3.968l198.4 104.32-38.4-221.056a34.56 34.56 0 0 1 9.984-30.592L859.136 441.6 637.312 409.6a35.2 35.2 0 0 1-25.6-18.944L512 189.312 412.8 390.4a35.2 35.2 0 0 1-25.6 18.944L164.864 441.6l160.512 156.416a34.56 34.56 0 0 1 9.984 30.592l-38.4 221.056 198.4-104.32a34.56 34.56 0 0 1 16.64-3.968z" fill="#0082FD" p-id="8723"></path></svg>