<?xml version="1.0" standalone="no"?><!DOCTYPE svg PUBLIC "-//W3C//DTD SVG 1.1//EN" "http://www.w3.org/Graphics/SVG/1.1/DTD/svg11.dtd"><svg t="1609721812777" class="icon" viewBox="0 0 1243 1024" version="1.1" xmlns="http://www.w3.org/2000/svg" p-id="7845" xmlns:xlink="http://www.w3.org/1999/xlink" width="242.7734375" height="200"><defs><style type="text/css"></style></defs><path d="M148.758827 1011.131059h-8.732495A140.179533 140.179533 0 0 1 0 871.411131v-352.363854a140.179533 140.179533 0 0 1 140.026332-140.026331h8.732495a140.179533 140.179533 0 0 1 140.026332 140.026331v352.363854A140.179533 140.179533 0 0 1 148.758827 1011.131059z m-8.732495-547.542789a56.071813 56.071813 0 0 0-56.071814 56.071814v352.363854a56.071813 56.071813 0 0 0 56.071814 55.918611h8.732495a56.071813 56.071813 0 0 0 56.071813-55.918611v-352.363854a56.071813 56.071813 0 0 0-56.071813-56.071814zM1025.225613 1024H538.963495a167.449431 167.449431 0 0 1-167.29623-167.29623V498.824656a168.521843 168.521843 0 0 1 30.640335-101.419509l175.569121-303.339318a144.46918 144.46918 0 1 1 250.178336 144.315978l-53.773788 93.146619h301.500897A167.143028 167.143028 0 0 1 1234.958707 549.994016l-89.316577 264.579293a41.977259 41.977259 0 1 1-79.511669-26.810293l89.010173-263.660084a83.341712 83.341712 0 0 0-79.358468-108.619988H701.510473A41.977259 41.977259 0 0 1 665.201676 352.363854l90.082585-155.959306a61.28067 61.28067 0 0 0 5.974865-45.960503 59.748654 59.748654 0 0 0-28.189108-36.768402 60.36146 60.36146 0 0 0-82.422502 22.214243L474.925194 441.680431a32.325554 32.325554 0 0 1-3.217235 4.749252 85.180132 85.180132 0 0 0-15.320167 52.394973v357.879114a83.494913 83.494913 0 0 0 83.341711 83.341712h485.49611a41.977259 41.977259 0 0 1 0 83.954518z" fill="#0060F7" p-id="7846"></path><path d="M991.06164 225.666068a41.670856 41.670856 0 0 1-18.843806-4.59605 42.283662 42.283662 0 0 1-18.537403-56.531418l71.851586-141.558349A41.977259 41.977259 0 0 1 1100.447636 61.28067l-71.851586 141.558349a41.977259 41.977259 0 0 1-37.53441 22.827049z" fill="#FF4B9D" p-id="7847"></path></svg>